<svg width="116" height="116" viewBox="0 0 116 116" fill="none" xmlns="http://www.w3.org/2000/svg">
<ellipse cx="59.6111" cy="59.6111" rx="43.5" ry="37.0556" fill="white"/>
<path d="M58 0C89.958 0 116 25.984 116 58C116 89.958 89.958 116 58 116C25.984 116 0 89.958 0 58C0 25.984 25.984 0 58 0ZM40.948 46.574C39.266 44.834 36.482 44.834 34.8 46.516C33.06 48.256 33.06 50.982 34.8 52.664L54.926 72.906C55.738 73.718 56.84 74.182 58 74.182C59.16 74.182 60.262 73.718 61.074 72.906L81.2 52.664C82.07 51.852 82.476 50.75 82.476 49.648C82.476 48.488 82.07 47.386 81.2 46.516C79.46 44.834 76.734 44.834 75.052 46.574L58 63.684L40.948 46.574Z" fill="url(#paint0_linear_463_2)"/>
<defs>
<linearGradient id="paint0_linear_463_2" x1="58" y1="0" x2="58" y2="116" gradientUnits="userSpaceOnUse">
<stop stop-color="#FFAF5A"/>
<stop offset="1" stop-color="#FFCA59"/>
</linearGradient>
</defs>
</svg>
