<svg width="54" height="55" viewBox="0 0 54 55" fill="none" xmlns="http://www.w3.org/2000/svg">
<path d="M6.00013 12L45.0001 12V42.6205L6.00013 42.6205L6.00013 12Z" fill="white"/>
<path d="M0 16.1965C-3.43767e-07 6.52246 6.1317 2.82713e-06 15.282 2.0326e-06L38.691 0C47.844 -7.94755e-07 54 6.52245 54 16.1965V38.5866C54 48.2881 47.844 54.8105 38.691 54.8105L15.282 54.8105C6.1317 54.8105 1.14037e-06 48.2881 7.95631e-07 38.5866L0 16.1965ZM15.444 26.8298C14.661 27.6245 14.661 28.94 15.444 29.7347L25.569 40.0665C26.325 40.8338 27.675 40.8338 28.431 40.0665L38.556 29.7347C39.339 28.94 39.339 27.6245 38.556 26.8298C37.746 26.035 36.477 26.035 35.667 26.8298L29.025 33.6263V16.2239C29.025 15.0729 28.107 14.1685 27 14.1685C25.866 14.1685 24.975 15.0729 24.975 16.2239V33.6263L18.306 26.8298C17.928 26.4461 17.388 26.2268 16.875 26.2268C16.3647 26.2268 15.849 26.4461 15.444 26.8298Z" fill="url(#paint0_linear_515_2)"/>
<defs>
<linearGradient id="paint0_linear_515_2" x1="-4.74325" y1="10.3696" x2="54.2721" y2="54.7033" gradientUnits="userSpaceOnUse">
<stop stop-color="#FFAA5A"/>
<stop offset="0.952894" stop-color="#FFCF58"/>
</linearGradient>
</defs>
</svg>
