<?xml version="1.0" encoding="UTF-8"?>
<!DOCTYPE svg PUBLIC "-//W3C//DTD SVG 1.1//EN" "http://www.w3.org/Graphics/SVG/1.1/DTD/svg11.dtd">
<!-- Creator: CorelDRAW -->
<svg xmlns="http://www.w3.org/2000/svg" xml:space="preserve" width="103.277mm" height="103.277mm" version="1.1" style="shape-rendering:geometricPrecision; text-rendering:geometricPrecision; image-rendering:optimizeQuality; fill-rule:evenodd; clip-rule:evenodd"
viewBox="0 0 3039.27 3039.27"
 xmlns:xlink="http://www.w3.org/1999/xlink"
 xmlns:xodm="http://www.corel.com/coreldraw/odm/2003">
 <defs>
  <style type="text/css">
   <![CDATA[
    .fil0 {fill:url(#id0);fill-rule:nonzero}
   ]]>
  </style>
  <linearGradient id="id0" gradientUnits="userSpaceOnUse" x1="7510.11" y1="-397.66" x2="-293.29" y2="1529.25">
   <stop offset="0" style="stop-opacity:1; stop-color:#1B17F3"/>
   <stop offset="0.611765" style="stop-opacity:1; stop-color:#5171FA"/>
   <stop offset="1" style="stop-opacity:1; stop-color:#73ABFF"/>
  </linearGradient>
 </defs>
 <g id="Camada_x0020_1">
  <metadata id="CorelCorpID_0Corel-Layer"/>
  <path class="fil0" d="M0.03 229.05l0 -9.73 -0.03 -219.32 217.21 0 4.78 0 4.86 0 1436.25 0 0.09 0 0.09 0 0.08 0 0.08 0 0.08 0 0.08 0 0.08 0 0.08 0 0.07 0 0.08 0 0.07 0 0.07 0 0.07 0 0.07 0 0.07 0 0.06 0 0.06 0 0.06 0 0.06 0 0.06 0 0.06 0 0.06 0 0.06 0 0.06 0 0.06 0 0.06 0 0.05 0 0.05 0 0.06 0 0.05 0 0.05 0 0.05 0 0.05 0 0.05 0 0.05 0 0.05 0 0.05 0 0.05 0 0.05 0 0.05 0 0.05 0 0.04 0 0.05 0 0.04 0 0.04 0 0.04 0 0.04 0 0.04 0 0.04 0 0.04 0 0.54 0c612.53,0.64 1139.15,371.36 1372.63,902.64l0 1233.99c-233.49,531.27 -760.1,901.99 -1372.63,902.64 -0.78,0 -1.71,0 -3.57,0l-518.67 0c-273.89,0 -410.83,0 -522.91,-31.59 -286.45,-80.72 -510.28,-306.75 -590.21,-596.02 -30.3,-109.64 -31.24,-242.85 -31.27,-502.52l0 -25.53 0 -1654.55 0.03 0z"/>
 </g>
</svg>
