<svg width="375" height="390" viewBox="0 0 375 390" fill="none" xmlns="http://www.w3.org/2000/svg">
<path d="M-22 29.3556C-22 15.8394 -22 9.08124 -17.9584 4.75724C-17.7279 4.51072 -17.4893 4.27205 -17.2428 4.04163C-12.9188 0 -6.16064 0 7.35561 0H193.241C193.481 0 193.602 0 193.703 0.000106212C300.964 0.1122 387.888 87.0361 388 194.297C388 194.398 388 194.519 388 194.759V194.759C388 194.999 388 195.119 388 195.221C387.888 302.482 300.964 389.405 193.703 389.518C193.602 389.518 193.481 389.518 193.241 389.518H126.112C90.6643 389.518 72.9405 389.518 58.4352 385.47C21.3621 375.125 -7.60763 346.156 -17.9525 309.082C-22 294.577 -22 276.853 -22 241.406V29.3556Z" fill="url(#paint0_linear_345_103)"/>
<defs>
<linearGradient id="paint0_linear_345_103" x1="950.57" y1="-51.3498" x2="-60.7001" y2="196.744" gradientUnits="userSpaceOnUse">
<stop stop-color="#1B17F3"/>
<stop offset="0.608962" stop-color="#5171FA"/>
<stop offset="1" stop-color="#73ABFF"/>
</linearGradient>
</defs>
</svg>
